<svg xmlns="http://www.w3.org/2000/svg" viewBox="0 0 64 64" role="img" aria-label="Santa">
  <defs>
    <linearGradient id="hatRed" x1="0%" y1="0%" x2="0%" y2="100%">
      <stop offset="0%" stop-color="#e53935"/>
      <stop offset="100%" stop-color="#b71c1c"/>
    </linearGradient>
    <linearGradient id="beard" x1="0%" y1="0%" x2="0%" y2="100%">
      <stop offset="0%" stop-color="#fafafa"/>
      <stop offset="100%" stop-color="#e0e0e0"/>
    </linearGradient>
  </defs>
  
  <!-- Hat -->
  <rect x="8" y="6" width="48" height="16" rx="4" fill="url(#hatRed)"/>
  <polygon points="8,22 32,10 56,22" fill="url(#hatRed)"/>
  <circle cx="56" cy="22" r="5" fill="#fafafa"/>
  <rect x="8" y="20" width="48" height="8" rx="4" fill="#fafafa"/>
  
  <!-- Face -->
  <circle cx="32" cy="36" r="16" fill="#ffe0bd" stroke="#d7b08a" stroke-width="1"/>
  <circle cx="23" cy="36" r="3" fill="#3c3c3c"/>
  <circle cx="41" cy="36" r="3" fill="#3c3c3c"/>
  <rect x="28" y="41" width="8" height="2" rx="1" fill="#b76d3c"/>
  
  <!-- Beard -->
  <path d="M16 40c0 11 7 18 16 18s16-7 16-18c-3 4-8 6-16 6s-13-2-16-6z" fill="url(#beard)" stroke="#d5d5d5" stroke-width="1"/>
  <circle cx="24" cy="44" r="4" fill="#fafafa"/>
  <circle cx="40" cy="44" r="4" fill="#fafafa"/>
  <circle cx="32" cy="48" r="5" fill="#fafafa"/>
  
  <!-- Nose and smile -->
  <circle cx="32" cy="40" r="3" fill="#f2b38a"/>
  <path d="M26 44c2 2 4 3 6 3s4-1 6-3" fill="none" stroke="#b76d3c" stroke-width="1.5" stroke-linecap="round"/>
</svg>
